<svg width="25" height="33" viewBox="0 0 25 33" fill="none" xmlns="http://www.w3.org/2000/svg">
<path d="M24.9397 32.4975H21.8902V29.4481C21.8902 26.9217 19.8424 24.8739 17.316 24.8739H8.16769C5.64145 24.8739 3.59352 26.9217 3.59352 29.4481V32.4975H0.544067V29.4481C0.544067 25.2377 3.95729 21.8244 8.16769 21.8244H17.316C21.5264 21.8244 24.9397 25.2377 24.9397 29.4481V32.4975ZM12.7419 18.775C7.68937 18.775 3.59352 14.6791 3.59352 9.62662C3.59352 4.57413 7.68937 0.478271 12.7419 0.478271C17.7944 0.478271 21.8902 4.57413 21.8902 9.62662C21.8902 14.6791 17.7944 18.775 12.7419 18.775ZM12.7419 15.7255C16.1101 15.7255 18.8408 12.995 18.8408 9.62662C18.8408 6.25829 16.1101 3.52772 12.7419 3.52772C9.37354 3.52772 6.64297 6.25829 6.64297 9.62662C6.64297 12.995 9.37354 15.7255 12.7419 15.7255Z" fill="#1C1C1C"/>
</svg>
