<svg width="28" height="33" viewBox="0 0 28 33" fill="none" xmlns="http://www.w3.org/2000/svg">
<path d="M4.59359 11.6514V10.1266C4.59359 5.07413 8.68944 0.978271 13.7419 0.978271C18.7944 0.978271 22.8903 5.07413 22.8903 10.1266V11.6514H25.9397C26.7818 11.6514 27.4645 12.334 27.4645 13.1761V31.4728C27.4645 32.3149 26.7818 32.9975 25.9397 32.9975H1.54413C0.702059 32.9975 0.0194092 32.3149 0.0194092 31.4728V13.1761C0.0194092 12.334 0.702059 11.6514 1.54413 11.6514H4.59359ZM24.415 14.7008H3.06886V29.9481H24.415V14.7008ZM12.2172 23.4411C11.3057 22.9139 10.6925 21.9285 10.6925 20.7997C10.6925 19.1155 12.0577 17.7503 13.7419 17.7503C15.4261 17.7503 16.7914 19.1155 16.7914 20.7997C16.7914 21.9285 16.1781 22.9139 15.2667 23.4411V26.8986H12.2172V23.4411ZM7.64304 11.6514H19.8408V10.1266C19.8408 6.75829 17.1102 4.02772 13.7419 4.02772C10.3736 4.02772 7.64304 6.75829 7.64304 10.1266V11.6514Z" fill="#1C1C1C"/>
</svg>
